<svg xmlns="http://www.w3.org/2000/svg" data-name="Layer 1" viewBox="0 0 512 512"><path fill="#00efd1" d="M428.89,130.05V463.28a37.2,37.2,0,0,1-37.21,37.2H120.32a37.2,37.2,0,0,1-37.21-37.2V130.05a37.211,37.211,0,0,1,37.21-37.21H179.4v40.78H332.6V92.84h59.08A37.211,37.211,0,0,1,428.89,130.05Zm-195.4,184.1L347.16,200.48l-22.63-22.63L233.6,268.78l-46.02-46.47-22.74,22.52Z"/><polygon fill="#fedb41" points="347.16 200.48 233.49 314.15 164.84 244.83 187.58 222.31 233.6 268.78 324.53 177.85 347.16 200.48"/><path fill="#00acea" d="M332.6,92.84v40.78H179.4V77.13a22.538,22.538,0,0,1,22.54-22.54H310.06A22.538,22.538,0,0,1,332.6,77.13Z"/><path fill="#00efd1" d="M290.11,53.68v.91H221.89V45.62a34.11,34.11,0,1,1,68.22,0Z"/><path fill="#083863" d="M391.68,85H341V77.13C341,60.29,326.9,47,310.06,47H298V45.62a42,42,0,1,0-84,0V47H201.94C185.1,47,171,60.29,171,77.13V85H120.32A45.219,45.219,0,0,0,75,130.05V463.28C75,488.2,95.392,508,120.32,508H391.68c24.928,0,45.32-19.8,45.32-44.72V130.05A45.219,45.219,0,0,0,391.68,85ZM230,45.62a26.088,26.088,0,0,1,26.055-26.1A25.95,25.95,0,0,1,282,45.62V47H230ZM187,77.13C187,69.112,193.923,63,201.94,63H310.06C318.077,63,325,69.112,325,77.13V126H187ZM421,463.28c0,16.1-13.214,28.72-29.32,28.72H120.32C104.214,492,91,479.381,91,463.28V130.05A29.2,29.2,0,0,1,120.32,101H171v32.62a8.682,8.682,0,0,0,8.4,8.38H332.6a8.682,8.682,0,0,0,8.4-8.38V101h50.68A29.2,29.2,0,0,1,421,130.05Z"/><path fill="#083863" d="M148.53 371h105.1a8 8 0 0 0 0-16H148.53a8 8 0 1 0 0 16zM363.47 410H148.53a8 8 0 1 0 0 16H363.47a8 8 0 0 0 0-16zM227.806 319.7a7.907 7.907 0 0 0 5.665 2.3h.019a7.933 7.933 0 0 0 5.657-2.268L352.817 206.1a7.977 7.977 0 0 0 0-11.294l-22.629-22.621a8 8 0 0 0-11.315 0l-85.246 85.247-40.362-40.912A8.119 8.119 0 0 0 187.619 214h-.039a8.156 8.156 0 0 0-5.629 2.471l-22.74 22.6a8.093 8.093 0 0 0-2.371 5.684 7.961 7.961 0 0 0 2.315 5.651zm-40.281-86.08l40.39 40.9A8.092 8.092 0 0 0 233.58 277h.02a8.113 8.113 0 0 0 5.657-2.453l85.273-85.328 11.317 11.289L233.518 302.822l-57.365-57.93z"/></svg>